<svg width="712" height="102" viewBox="0 0 712 102" fill="none" xmlns="http://www.w3.org/2000/svg">
<path d="M11.6822 97V86.504H17.7302V87.624H13.0102V90.92H16.9942V92.056H13.0102V95.864H17.8902V97H11.6822ZM24.7757 97V90.296H21.5277V97H20.2157V90.296H19.1597V89.304L20.2157 89.224V88.2C20.2157 87.3893 20.413 86.7493 20.8077 86.28C21.213 85.8107 21.821 85.576 22.6317 85.576C23.165 85.576 23.6397 85.672 24.0557 85.864L23.7837 86.856C23.4637 86.7173 23.117 86.648 22.7437 86.648C22.3597 86.648 22.061 86.7867 21.8477 87.064C21.6344 87.3307 21.5277 87.72 21.5277 88.232V89.224H24.7757V87.992C24.7757 87.2027 24.957 86.5787 25.3197 86.12C25.693 85.6507 26.269 85.416 27.0477 85.416C27.293 85.416 27.5277 85.4427 27.7517 85.496C27.9757 85.5387 28.173 85.5973 28.3437 85.672L28.0557 86.68C27.7677 86.552 27.4744 86.488 27.1757 86.488C26.4504 86.488 26.0877 86.9893 26.0877 87.992V89.224H27.7357V90.296H26.0877V97H24.7757ZM32.0938 97.192C31.4645 97.192 30.8725 97.032 30.3178 96.712C29.7738 96.392 29.3311 95.928 28.9898 95.32C28.6591 94.712 28.4938 93.9813 28.4938 93.128C28.4938 92.2533 28.6591 91.512 28.9898 90.904C29.3311 90.296 29.7738 89.832 30.3178 89.512C30.8725 89.192 31.4645 89.032 32.0938 89.032C32.7338 89.032 33.3258 89.192 33.8698 89.512C34.4138 89.832 34.8511 90.296 35.1818 90.904C35.5231 91.512 35.6938 92.2533 35.6938 93.128C35.6938 93.9813 35.5231 94.712 35.1818 95.32C34.8511 95.928 34.4138 96.392 33.8698 96.712C33.3258 97.032 32.7338 97.192 32.0938 97.192ZM32.0938 96.104C32.7658 96.104 33.3045 95.832 33.7098 95.288C34.1258 94.7333 34.3338 94.0133 34.3338 93.128C34.3338 92.232 34.1258 91.5067 33.7098 90.952C33.3045 90.3973 32.7658 90.12 32.0938 90.12C31.4325 90.12 30.8938 90.3973 30.4778 90.952C30.0618 91.5067 29.8538 92.232 29.8538 93.128C29.8538 94.0133 30.0618 94.7333 30.4778 95.288C30.8938 95.832 31.4325 96.104 32.0938 96.104ZM37.7417 97V89.224H38.8297L38.9417 90.632H38.9897C39.2564 90.1413 39.5817 89.752 39.9657 89.464C40.3497 89.176 40.7604 89.032 41.1977 89.032C41.507 89.032 41.7844 89.0853 42.0297 89.192L41.7737 90.344C41.6457 90.3013 41.5284 90.2693 41.4217 90.248C41.315 90.2267 41.1817 90.216 41.0217 90.216C40.691 90.216 40.3444 90.3493 39.9817 90.616C39.6297 90.8827 39.3204 91.3467 39.0537 92.008V97H37.7417ZM45.7366 97.192C44.9046 97.192 44.3232 96.952 43.9926 96.472C43.6726 95.992 43.5126 95.368 43.5126 94.6V90.296H42.3606V89.304L43.5766 89.224L43.7366 87.048H44.8406V89.224H46.9366V90.296H44.8406V94.616C44.8406 95.096 44.9259 95.4693 45.0966 95.736C45.2779 95.992 45.5926 96.12 46.0406 96.12C46.1792 96.12 46.3286 96.0987 46.4886 96.056C46.6486 96.0027 46.7926 95.9547 46.9206 95.912L47.1766 96.904C46.9632 96.9787 46.7286 97.0427 46.4726 97.096C46.2272 97.16 45.9819 97.192 45.7366 97.192ZM50.0868 97.192C49.5961 97.192 49.2388 97.0427 49.0148 96.744C48.8015 96.4347 48.6948 95.9973 48.6948 95.432V85.608H50.0068V95.528C50.0068 95.7307 50.0441 95.88 50.1188 95.976C50.1935 96.0613 50.2788 96.104 50.3748 96.104C50.4175 96.104 50.4548 96.104 50.4868 96.104C50.5295 96.0933 50.5881 96.0827 50.6628 96.072L50.8388 97.064C50.7535 97.1067 50.6521 97.1387 50.5348 97.16C50.4175 97.1813 50.2681 97.192 50.0868 97.192ZM55.9249 97.192C55.2316 97.192 54.6023 97.032 54.0369 96.712C53.4716 96.3813 53.0236 95.912 52.6929 95.304C52.3623 94.696 52.1969 93.9707 52.1969 93.128C52.1969 92.2747 52.3623 91.544 52.6929 90.936C53.0343 90.328 53.4716 89.8587 54.0049 89.528C54.5383 89.1973 55.0983 89.032 55.6849 89.032C56.6769 89.032 57.4396 89.3627 57.9729 90.024C58.5169 90.6853 58.7889 91.5707 58.7889 92.68C58.7889 92.8187 58.7836 92.9573 58.7729 93.096C58.7729 93.224 58.7623 93.336 58.7409 93.432H53.4929C53.5463 94.2533 53.8023 94.9093 54.2609 95.4C54.7303 95.8907 55.3383 96.136 56.0849 96.136C56.4583 96.136 56.7996 96.0827 57.1089 95.976C57.4289 95.8587 57.7329 95.7093 58.0209 95.528L58.4849 96.392C58.1543 96.6053 57.7756 96.792 57.3489 96.952C56.9329 97.112 56.4583 97.192 55.9249 97.192ZM53.4769 92.488H57.6369C57.6369 91.6987 57.4663 91.1013 57.1249 90.696C56.7943 90.28 56.3249 90.072 55.7169 90.072C55.1729 90.072 54.6823 90.2853 54.2449 90.712C53.8183 91.128 53.5623 91.72 53.4769 92.488ZM62.7424 97.192C62.1878 97.192 61.6598 97.0907 61.1584 96.888C60.6571 96.6747 60.2198 96.4187 59.8464 96.12L60.5024 95.24C60.8438 95.5067 61.1958 95.7307 61.5584 95.912C61.9211 96.0827 62.3318 96.168 62.7904 96.168C63.3024 96.168 63.6864 96.0507 63.9424 95.816C64.1984 95.5707 64.3264 95.2827 64.3264 94.952C64.3264 94.6853 64.2358 94.4613 64.0544 94.28C63.8838 94.0987 63.6598 93.9493 63.3824 93.832C63.1158 93.704 62.8384 93.5867 62.5504 93.48C62.1878 93.3413 61.8304 93.1867 61.4784 93.016C61.1264 92.8347 60.8384 92.6053 60.6144 92.328C60.3904 92.04 60.2784 91.6773 60.2784 91.24C60.2784 90.6107 60.5131 90.088 60.9824 89.672C61.4624 89.2453 62.1238 89.032 62.9664 89.032C63.4464 89.032 63.8944 89.1173 64.3104 89.288C64.7264 89.4587 65.0838 89.6667 65.3824 89.912L64.7424 90.744C64.4758 90.5413 64.1984 90.376 63.9104 90.248C63.6224 90.12 63.3078 90.056 62.9664 90.056C62.4758 90.056 62.1131 90.168 61.8784 90.392C61.6544 90.616 61.5424 90.8773 61.5424 91.176C61.5424 91.4213 61.6224 91.624 61.7824 91.784C61.9424 91.9333 62.1504 92.0667 62.4064 92.184C62.6624 92.2907 62.9344 92.4027 63.2224 92.52C63.5958 92.6587 63.9638 92.8187 64.3264 93C64.6891 93.1707 64.9878 93.4053 65.2224 93.704C65.4678 93.992 65.5904 94.3813 65.5904 94.872C65.5904 95.288 65.4784 95.672 65.2544 96.024C65.0411 96.376 64.7211 96.6587 64.2944 96.872C63.8784 97.0853 63.3611 97.192 62.7424 97.192ZM69.4456 97.192C68.8909 97.192 68.3629 97.0907 67.8616 96.888C67.3602 96.6747 66.9229 96.4187 66.5496 96.12L67.2056 95.24C67.5469 95.5067 67.8989 95.7307 68.2616 95.912C68.6242 96.0827 69.0349 96.168 69.4936 96.168C70.0056 96.168 70.3896 96.0507 70.6456 95.816C70.9016 95.5707 71.0296 95.2827 71.0296 94.952C71.0296 94.6853 70.9389 94.4613 70.7576 94.28C70.5869 94.0987 70.3629 93.9493 70.0856 93.832C69.8189 93.704 69.5416 93.5867 69.2536 93.48C68.8909 93.3413 68.5336 93.1867 68.1816 93.016C67.8296 92.8347 67.5416 92.6053 67.3176 92.328C67.0936 92.04 66.9816 91.6773 66.9816 91.24C66.9816 90.6107 67.2162 90.088 67.6856 89.672C68.1656 89.2453 68.8269 89.032 69.6696 89.032C70.1496 89.032 70.5976 89.1173 71.0136 89.288C71.4296 89.4587 71.7869 89.6667 72.0856 89.912L71.4456 90.744C71.1789 90.5413 70.9016 90.376 70.6136 90.248C70.3256 90.12 70.0109 90.056 69.6696 90.056C69.1789 90.056 68.8162 90.168 68.5816 90.392C68.3576 90.616 68.2456 90.8773 68.2456 91.176C68.2456 91.4213 68.3256 91.624 68.4856 91.784C68.6456 91.9333 68.8536 92.0667 69.1096 92.184C69.3656 92.2907 69.6376 92.4027 69.9256 92.52C70.2989 92.6587 70.6669 92.8187 71.0296 93C71.3922 93.1707 71.6909 93.4053 71.9256 93.704C72.1709 93.992 72.2936 94.3813 72.2936 94.872C72.2936 95.288 72.1816 95.672 71.9576 96.024C71.7442 96.376 71.4242 96.6587 70.9976 96.872C70.5816 97.0853 70.0642 97.192 69.4456 97.192ZM77.4478 97V86.504H78.7758V97H77.4478ZM81.5229 97V89.224H82.6109L82.7229 90.344H82.7709C83.1443 89.9707 83.5389 89.6613 83.9549 89.416C84.3709 89.16 84.8456 89.032 85.3789 89.032C86.2003 89.032 86.7976 89.2933 87.1709 89.816C87.5549 90.328 87.7469 91.08 87.7469 92.072V97H86.4349V92.248C86.4349 91.5227 86.3176 90.9947 86.0829 90.664C85.8483 90.3333 85.4749 90.168 84.9629 90.168C84.5683 90.168 84.2109 90.2693 83.8909 90.472C83.5816 90.6747 83.2296 90.9733 82.8349 91.368V97H81.5229ZM92.7209 97.192C91.8889 97.192 91.3076 96.952 90.9769 96.472C90.6569 95.992 90.4969 95.368 90.4969 94.6V90.296H89.3449V89.304L90.5609 89.224L90.7209 87.048H91.8249V89.224H93.9209V90.296H91.8249V94.616C91.8249 95.096 91.9103 95.4693 92.0809 95.736C92.2623 95.992 92.5769 96.12 93.0249 96.12C93.1636 96.12 93.3129 96.0987 93.4729 96.056C93.6329 96.0027 93.7769 95.9547 93.9049 95.912L94.1609 96.904C93.9476 96.9787 93.7129 97.0427 93.4569 97.096C93.2116 97.16 92.9663 97.192 92.7209 97.192ZM98.6124 97.192C97.9191 97.192 97.2898 97.032 96.7244 96.712C96.1591 96.3813 95.7111 95.912 95.3804 95.304C95.0498 94.696 94.8844 93.9707 94.8844 93.128C94.8844 92.2747 95.0498 91.544 95.3804 90.936C95.7218 90.328 96.1591 89.8587 96.6924 89.528C97.2258 89.1973 97.7858 89.032 98.3724 89.032C99.3644 89.032 100.127 89.3627 100.66 90.024C101.204 90.6853 101.476 91.5707 101.476 92.68C101.476 92.8187 101.471 92.9573 101.46 93.096C101.46 93.224 101.45 93.336 101.428 93.432H96.1804C96.2338 94.2533 96.4898 94.9093 96.9484 95.4C97.4178 95.8907 98.0258 96.136 98.7724 96.136C99.1458 96.136 99.4871 96.0827 99.7964 95.976C100.116 95.8587 100.42 95.7093 100.708 95.528L101.172 96.392C100.842 96.6053 100.463 96.792 100.036 96.952C99.6204 97.112 99.1458 97.192 98.6124 97.192ZM96.1644 92.488H100.324C100.324 91.6987 100.154 91.1013 99.8124 90.696C99.4818 90.28 99.0124 90.072 98.4044 90.072C97.8604 90.072 97.3698 90.2853 96.9324 90.712C96.5058 91.128 96.2498 91.72 96.1644 92.488ZM105.866 100.584C104.916 100.584 104.143 100.403 103.546 100.04C102.948 99.6773 102.65 99.16 102.65 98.488C102.65 98.1573 102.751 97.8373 102.954 97.528C103.156 97.2293 103.434 96.9627 103.786 96.728V96.664C103.594 96.5467 103.428 96.3813 103.29 96.168C103.162 95.9547 103.098 95.6987 103.098 95.4C103.098 95.0693 103.188 94.7813 103.37 94.536C103.551 94.2907 103.743 94.0987 103.946 93.96V93.896C103.69 93.6827 103.455 93.3947 103.242 93.032C103.039 92.6693 102.938 92.2587 102.938 91.8C102.938 91.2347 103.071 90.744 103.338 90.328C103.604 89.912 103.962 89.592 104.41 89.368C104.858 89.144 105.343 89.032 105.866 89.032C106.079 89.032 106.282 89.0533 106.474 89.096C106.666 89.128 106.831 89.1707 106.97 89.224H109.674V90.232H108.074C108.255 90.4027 108.404 90.632 108.522 90.92C108.65 91.1973 108.714 91.5013 108.714 91.832C108.714 92.3867 108.586 92.8667 108.33 93.272C108.074 93.6773 107.732 93.992 107.306 94.216C106.879 94.4293 106.399 94.536 105.866 94.536C105.45 94.536 105.06 94.4453 104.698 94.264C104.559 94.3813 104.442 94.5147 104.346 94.664C104.25 94.8027 104.202 94.9787 104.202 95.192C104.202 95.4373 104.298 95.64 104.49 95.8C104.692 95.96 105.055 96.04 105.578 96.04H107.082C107.988 96.04 108.666 96.1893 109.114 96.488C109.572 96.776 109.802 97.2453 109.802 97.896C109.802 98.376 109.642 98.8187 109.322 99.224C109.002 99.6293 108.548 99.9547 107.962 100.2C107.375 100.456 106.676 100.584 105.866 100.584ZM105.866 93.656C106.314 93.656 106.698 93.4907 107.018 93.16C107.348 92.8187 107.514 92.3653 107.514 91.8C107.514 91.2347 107.354 90.792 107.034 90.472C106.714 90.152 106.324 89.992 105.866 89.992C105.407 89.992 105.018 90.152 104.698 90.472C104.378 90.792 104.218 91.2347 104.218 91.8C104.218 92.3653 104.378 92.8187 104.698 93.16C105.028 93.4907 105.418 93.656 105.866 93.656ZM106.058 99.672C106.804 99.672 107.402 99.5067 107.85 99.176C108.298 98.856 108.522 98.4933 108.522 98.088C108.522 97.7253 108.383 97.4747 108.106 97.336C107.839 97.1973 107.455 97.128 106.954 97.128H105.61C105.46 97.128 105.295 97.1173 105.114 97.096C104.943 97.0747 104.772 97.0427 104.602 97C104.324 97.2027 104.122 97.416 103.994 97.64C103.866 97.864 103.802 98.088 103.802 98.312C103.802 98.728 103.999 99.0587 104.394 99.304C104.799 99.5493 105.354 99.672 106.058 99.672ZM111.304 97V89.224H112.392L112.504 90.632H112.552C112.819 90.1413 113.144 89.752 113.528 89.464C113.912 89.176 114.323 89.032 114.76 89.032C115.07 89.032 115.347 89.0853 115.592 89.192L115.336 90.344C115.208 90.3013 115.091 90.2693 114.984 90.248C114.878 90.2267 114.744 90.216 114.584 90.216C114.254 90.216 113.907 90.3493 113.544 90.616C113.192 90.8827 112.883 91.3467 112.616 92.008V97H111.304ZM118.252 97.192C117.602 97.192 117.058 97 116.62 96.616C116.194 96.2213 115.98 95.6773 115.98 94.984C115.98 94.1307 116.359 93.48 117.116 93.032C117.884 92.5733 119.095 92.2533 120.748 92.072C120.748 91.7413 120.7 91.4267 120.604 91.128C120.519 90.8293 120.359 90.5893 120.124 90.408C119.9 90.216 119.575 90.12 119.148 90.12C118.7 90.12 118.279 90.2053 117.884 90.376C117.49 90.5467 117.138 90.7387 116.828 90.952L116.316 90.04C116.679 89.8053 117.122 89.5813 117.644 89.368C118.178 89.144 118.754 89.032 119.372 89.032C120.322 89.032 121.01 89.3253 121.436 89.912C121.863 90.488 122.076 91.2613 122.076 92.232V97H120.988L120.876 96.072H120.828C120.466 96.3707 120.066 96.632 119.628 96.856C119.202 97.08 118.743 97.192 118.252 97.192ZM118.636 96.136C119.01 96.136 119.362 96.0453 119.692 95.864C120.023 95.6827 120.375 95.4267 120.748 95.096V92.936C119.458 93.096 118.551 93.336 118.028 93.656C117.516 93.976 117.26 94.3867 117.26 94.888C117.26 95.3253 117.394 95.6453 117.66 95.848C117.927 96.04 118.252 96.136 118.636 96.136ZM126.752 97.192C125.92 97.192 125.339 96.952 125.008 96.472C124.688 95.992 124.528 95.368 124.528 94.6V90.296H123.376V89.304L124.592 89.224L124.752 87.048H125.856V89.224H127.952V90.296H125.856V94.616C125.856 95.096 125.942 95.4693 126.112 95.736C126.294 95.992 126.608 96.12 127.056 96.12C127.195 96.12 127.344 96.0987 127.504 96.056C127.664 96.0027 127.808 95.9547 127.936 95.912L128.192 96.904C127.979 96.9787 127.744 97.0427 127.488 97.096C127.243 97.16 126.998 97.192 126.752 97.192ZM129.71 97V89.224H131.022V97H129.71ZM130.382 87.624C130.126 87.624 129.913 87.5493 129.742 87.4C129.582 87.24 129.502 87.0267 129.502 86.76C129.502 86.504 129.582 86.296 129.742 86.136C129.913 85.976 130.126 85.896 130.382 85.896C130.638 85.896 130.846 85.976 131.006 86.136C131.177 86.296 131.262 86.504 131.262 86.76C131.262 87.0267 131.177 87.24 131.006 87.4C130.846 87.5493 130.638 87.624 130.382 87.624ZM136.672 97.192C136.043 97.192 135.451 97.032 134.896 96.712C134.352 96.392 133.909 95.928 133.568 95.32C133.237 94.712 133.072 93.9813 133.072 93.128C133.072 92.2533 133.237 91.512 133.568 90.904C133.909 90.296 134.352 89.832 134.896 89.512C135.451 89.192 136.043 89.032 136.672 89.032C137.312 89.032 137.904 89.192 138.448 89.512C138.992 89.832 139.429 90.296 139.76 90.904C140.101 91.512 140.272 92.2533 140.272 93.128C140.272 93.9813 140.101 94.712 139.76 95.32C139.429 95.928 138.992 96.392 138.448 96.712C137.904 97.032 137.312 97.192 136.672 97.192ZM136.672 96.104C137.344 96.104 137.883 95.832 138.288 95.288C138.704 94.7333 138.912 94.0133 138.912 93.128C138.912 92.232 138.704 91.5067 138.288 90.952C137.883 90.3973 137.344 90.12 136.672 90.12C136.011 90.12 135.472 90.3973 135.056 90.952C134.64 91.5067 134.432 92.232 134.432 93.128C134.432 94.0133 134.64 94.7333 135.056 95.288C135.472 95.832 136.011 96.104 136.672 96.104ZM142.32 97V89.224H143.408L143.52 90.344H143.568C143.941 89.9707 144.336 89.6613 144.752 89.416C145.168 89.16 145.642 89.032 146.176 89.032C146.997 89.032 147.594 89.2933 147.968 89.816C148.352 90.328 148.544 91.08 148.544 92.072V97H147.232V92.248C147.232 91.5227 147.114 90.9947 146.88 90.664C146.645 90.3333 146.272 90.168 145.76 90.168C145.365 90.168 145.008 90.2693 144.688 90.472C144.378 90.6747 144.026 90.9733 143.632 91.368V97H142.32Z" fill="#212121"/>
<path d="M202.373 91.128L201.877 92.728H205.029L204.533 91.128C204.341 90.5413 204.16 89.96 203.989 89.384C203.818 88.7973 203.648 88.2 203.477 87.592H203.413C203.253 88.2 203.088 88.7973 202.917 89.384C202.746 89.96 202.565 90.5413 202.373 91.128ZM199.173 97L202.725 86.504H204.229L207.781 97H206.357L205.365 93.8H201.541L200.533 97H199.173ZM211.318 97.192C210.497 97.192 209.894 96.936 209.51 96.424C209.126 95.9013 208.934 95.144 208.934 94.152V89.224H210.262V93.976C210.262 94.7013 210.374 95.2293 210.598 95.56C210.833 95.8907 211.206 96.056 211.718 96.056C212.124 96.056 212.481 95.9547 212.79 95.752C213.11 95.5387 213.452 95.2027 213.814 94.744V89.224H215.126V97H214.038L213.926 95.784H213.878C213.516 96.2107 213.132 96.552 212.726 96.808C212.321 97.064 211.852 97.192 211.318 97.192ZM220.198 97.192C219.366 97.192 218.784 96.952 218.454 96.472C218.134 95.992 217.974 95.368 217.974 94.6V90.296H216.822V89.304L218.038 89.224L218.198 87.048H219.302V89.224H221.398V90.296H219.302V94.616C219.302 95.096 219.387 95.4693 219.558 95.736C219.739 95.992 220.054 96.12 220.502 96.12C220.64 96.12 220.79 96.0987 220.95 96.056C221.11 96.0027 221.254 95.9547 221.382 95.912L221.638 96.904C221.424 96.9787 221.19 97.0427 220.934 97.096C220.688 97.16 220.443 97.192 220.198 97.192ZM225.961 97.192C225.332 97.192 224.74 97.032 224.185 96.712C223.641 96.392 223.198 95.928 222.857 95.32C222.526 94.712 222.361 93.9813 222.361 93.128C222.361 92.2533 222.526 91.512 222.857 90.904C223.198 90.296 223.641 89.832 224.185 89.512C224.74 89.192 225.332 89.032 225.961 89.032C226.601 89.032 227.193 89.192 227.737 89.512C228.281 89.832 228.718 90.296 229.049 90.904C229.39 91.512 229.561 92.2533 229.561 93.128C229.561 93.9813 229.39 94.712 229.049 95.32C228.718 95.928 228.281 96.392 227.737 96.712C227.193 97.032 226.601 97.192 225.961 97.192ZM225.961 96.104C226.633 96.104 227.172 95.832 227.577 95.288C227.993 94.7333 228.201 94.0133 228.201 93.128C228.201 92.232 227.993 91.5067 227.577 90.952C227.172 90.3973 226.633 90.12 225.961 90.12C225.3 90.12 224.761 90.3973 224.345 90.952C223.929 91.5067 223.721 92.232 223.721 93.128C223.721 94.0133 223.929 94.7333 224.345 95.288C224.761 95.832 225.3 96.104 225.961 96.104ZM231.609 97V89.224H232.697L232.809 90.344H232.857C233.198 89.9707 233.572 89.6613 233.977 89.416C234.382 89.16 234.814 89.032 235.273 89.032C235.87 89.032 236.334 89.1653 236.665 89.432C237.006 89.688 237.257 90.0507 237.417 90.52C237.822 90.0827 238.233 89.7253 238.649 89.448C239.065 89.1707 239.508 89.032 239.977 89.032C240.777 89.032 241.369 89.2933 241.753 89.816C242.148 90.328 242.345 91.08 242.345 92.072V97H241.033V92.248C241.033 91.5227 240.916 90.9947 240.681 90.664C240.446 90.3333 240.084 90.168 239.593 90.168C239.017 90.168 238.366 90.568 237.641 91.368V97H236.329V92.248C236.329 91.5227 236.212 90.9947 235.977 90.664C235.742 90.3333 235.374 90.168 234.873 90.168C234.297 90.168 233.646 90.568 232.921 91.368V97H231.609ZM246.667 97.192C246.016 97.192 245.472 97 245.035 96.616C244.608 96.2213 244.395 95.6773 244.395 94.984C244.395 94.1307 244.773 93.48 245.531 93.032C246.299 92.5733 247.509 92.2533 249.163 92.072C249.163 91.7413 249.115 91.4267 249.019 91.128C248.933 90.8293 248.773 90.5893 248.539 90.408C248.315 90.216 247.989 90.12 247.562 90.12C247.115 90.12 246.693 90.2053 246.299 90.376C245.904 90.5467 245.552 90.7387 245.243 90.952L244.731 90.04C245.093 89.8053 245.536 89.5813 246.059 89.368C246.592 89.144 247.168 89.032 247.786 89.032C248.736 89.032 249.424 89.3253 249.851 89.912C250.277 90.488 250.491 91.2613 250.491 92.232V97H249.403L249.291 96.072H249.243C248.88 96.3707 248.48 96.632 248.043 96.856C247.616 97.08 247.157 97.192 246.667 97.192ZM247.051 96.136C247.424 96.136 247.776 96.0453 248.107 95.864C248.437 95.6827 248.789 95.4267 249.163 95.096V92.936C247.872 93.096 246.965 93.336 246.443 93.656C245.931 93.976 245.674 94.3867 245.674 94.888C245.674 95.3253 245.808 95.6453 246.075 95.848C246.341 96.04 246.667 96.136 247.051 96.136ZM255.166 97.192C254.334 97.192 253.753 96.952 253.422 96.472C253.102 95.992 252.942 95.368 252.942 94.6V90.296H251.79V89.304L253.006 89.224L253.166 87.048H254.27V89.224H256.366V90.296H254.27V94.616C254.27 95.096 254.356 95.4693 254.526 95.736C254.708 95.992 255.022 96.12 255.47 96.12C255.609 96.12 255.758 96.0987 255.918 96.056C256.078 96.0027 256.222 95.9547 256.35 95.912L256.606 96.904C256.393 96.9787 256.158 97.0427 255.902 97.096C255.657 97.16 255.412 97.192 255.166 97.192ZM261.058 97.192C260.364 97.192 259.735 97.032 259.17 96.712C258.604 96.3813 258.156 95.912 257.826 95.304C257.495 94.696 257.33 93.9707 257.33 93.128C257.33 92.2747 257.495 91.544 257.826 90.936C258.167 90.328 258.604 89.8587 259.138 89.528C259.671 89.1973 260.231 89.032 260.818 89.032C261.81 89.032 262.572 89.3627 263.106 90.024C263.65 90.6853 263.922 91.5707 263.922 92.68C263.922 92.8187 263.916 92.9573 263.906 93.096C263.906 93.224 263.895 93.336 263.874 93.432H258.626C258.679 94.2533 258.935 94.9093 259.394 95.4C259.863 95.8907 260.471 96.136 261.218 96.136C261.591 96.136 261.932 96.0827 262.242 95.976C262.562 95.8587 262.866 95.7093 263.154 95.528L263.618 96.392C263.287 96.6053 262.908 96.792 262.482 96.952C262.066 97.112 261.591 97.192 261.058 97.192ZM258.61 92.488H262.77C262.77 91.6987 262.599 91.1013 262.258 90.696C261.927 90.28 261.458 90.072 260.85 90.072C260.306 90.072 259.815 90.2853 259.378 90.712C258.951 91.128 258.695 91.72 258.61 92.488ZM268.499 97.192C267.529 97.192 266.75 96.84 266.163 96.136C265.577 95.4213 265.283 94.4187 265.283 93.128C265.283 92.2853 265.438 91.56 265.747 90.952C266.067 90.3333 266.483 89.8587 266.995 89.528C267.518 89.1973 268.073 89.032 268.659 89.032C269.107 89.032 269.497 89.112 269.827 89.272C270.158 89.432 270.494 89.6507 270.835 89.928L270.771 88.6V85.608H272.099V97H271.011L270.899 96.088H270.851C270.553 96.3867 270.201 96.648 269.795 96.872C269.39 97.0853 268.958 97.192 268.499 97.192ZM268.787 96.088C269.47 96.088 270.131 95.7307 270.771 95.016V90.952C270.441 90.6533 270.121 90.4453 269.811 90.328C269.513 90.2 269.203 90.136 268.883 90.136C268.467 90.136 268.089 90.264 267.747 90.52C267.417 90.7653 267.15 91.112 266.947 91.56C266.745 91.9973 266.643 92.5147 266.643 93.112C266.643 94.04 266.83 94.7707 267.203 95.304C267.577 95.8267 268.105 96.088 268.787 96.088ZM279.201 97L276.977 86.504H278.353L279.457 92.216C279.553 92.7813 279.655 93.3467 279.761 93.912C279.868 94.4773 279.969 95.0427 280.065 95.608H280.129C280.247 95.0427 280.369 94.4773 280.497 93.912C280.625 93.336 280.748 92.7707 280.865 92.216L282.321 86.504H283.537L284.993 92.216C285.121 92.7707 285.249 93.336 285.377 93.912C285.505 94.4773 285.633 95.0427 285.761 95.608H285.825C285.921 95.0427 286.017 94.4773 286.113 93.912C286.209 93.336 286.311 92.7707 286.417 92.216L287.521 86.504H288.801L286.625 97H285.025L283.441 90.68C283.345 90.2747 283.255 89.88 283.169 89.496C283.095 89.1013 283.015 88.7013 282.929 88.296H282.865C282.791 88.7013 282.705 89.1013 282.609 89.496C282.513 89.88 282.423 90.2747 282.337 90.68L280.785 97H279.201ZM293.524 97.192C292.894 97.192 292.302 97.032 291.748 96.712C291.204 96.392 290.761 95.928 290.42 95.32C290.089 94.712 289.924 93.9813 289.924 93.128C289.924 92.2533 290.089 91.512 290.42 90.904C290.761 90.296 291.204 89.832 291.748 89.512C292.302 89.192 292.894 89.032 293.524 89.032C294.164 89.032 294.756 89.192 295.3 89.512C295.844 89.832 296.281 90.296 296.612 90.904C296.953 91.512 297.124 92.2533 297.124 93.128C297.124 93.9813 296.953 94.712 296.612 95.32C296.281 95.928 295.844 96.392 295.3 96.712C294.756 97.032 294.164 97.192 293.524 97.192ZM293.524 96.104C294.196 96.104 294.734 95.832 295.14 95.288C295.556 94.7333 295.764 94.0133 295.764 93.128C295.764 92.232 295.556 91.5067 295.14 90.952C294.734 90.3973 294.196 90.12 293.524 90.12C292.862 90.12 292.324 90.3973 291.908 90.952C291.492 91.5067 291.284 92.232 291.284 93.128C291.284 94.0133 291.492 94.7333 291.908 95.288C292.324 95.832 292.862 96.104 293.524 96.104ZM299.171 97V89.224H300.259L300.371 90.632H300.419C300.686 90.1413 301.011 89.752 301.395 89.464C301.779 89.176 302.19 89.032 302.627 89.032C302.937 89.032 303.214 89.0853 303.459 89.192L303.203 90.344C303.075 90.3013 302.958 90.2693 302.851 90.248C302.745 90.2267 302.611 90.216 302.451 90.216C302.121 90.216 301.774 90.3493 301.411 90.616C301.059 90.8827 300.75 91.3467 300.483 92.008V97H299.171ZM304.718 97V85.608H306.014V93.32H306.062L309.374 89.224H310.83L308.222 92.344L311.182 97H309.742L307.47 93.256L306.014 94.952V97H304.718ZM312.864 97V90.296H311.808V89.304L312.864 89.224V87.992C312.864 87.2027 313.045 86.5787 313.408 86.12C313.781 85.6507 314.357 85.416 315.136 85.416C315.381 85.416 315.616 85.4427 315.84 85.496C316.064 85.5387 316.261 85.5973 316.432 85.672L316.144 86.68C315.856 86.552 315.563 86.488 315.264 86.488C314.539 86.488 314.176 86.9893 314.176 87.992V89.224H315.824V90.296H314.176V97H312.864ZM318.704 97.192C318.213 97.192 317.856 97.0427 317.632 96.744C317.419 96.4347 317.312 95.9973 317.312 95.432V85.608H318.624V95.528C318.624 95.7307 318.661 95.88 318.736 95.976C318.811 96.0613 318.896 96.104 318.992 96.104C319.035 96.104 319.072 96.104 319.104 96.104C319.147 96.0933 319.205 96.0827 319.28 96.072L319.456 97.064C319.371 97.1067 319.269 97.1387 319.152 97.16C319.035 97.1813 318.885 97.192 318.704 97.192ZM324.414 97.192C323.785 97.192 323.193 97.032 322.638 96.712C322.094 96.392 321.651 95.928 321.31 95.32C320.979 94.712 320.814 93.9813 320.814 93.128C320.814 92.2533 320.979 91.512 321.31 90.904C321.651 90.296 322.094 89.832 322.638 89.512C323.193 89.192 323.785 89.032 324.414 89.032C325.054 89.032 325.646 89.192 326.19 89.512C326.734 89.832 327.171 90.296 327.502 90.904C327.843 91.512 328.014 92.2533 328.014 93.128C328.014 93.9813 327.843 94.712 327.502 95.32C327.171 95.928 326.734 96.392 326.19 96.712C325.646 97.032 325.054 97.192 324.414 97.192ZM324.414 96.104C325.086 96.104 325.625 95.832 326.03 95.288C326.446 94.7333 326.654 94.0133 326.654 93.128C326.654 92.232 326.446 91.5067 326.03 90.952C325.625 90.3973 325.086 90.12 324.414 90.12C323.753 90.12 323.214 90.3973 322.798 90.952C322.382 91.5067 322.174 92.232 322.174 93.128C322.174 94.0133 322.382 94.7333 322.798 95.288C323.214 95.832 323.753 96.104 324.414 96.104ZM331.232 97L329.072 89.224H330.416L331.568 93.72C331.653 94.0827 331.733 94.4453 331.808 94.808C331.882 95.16 331.957 95.5173 332.032 95.88H332.096C332.181 95.5173 332.266 95.16 332.352 94.808C332.437 94.4453 332.528 94.0827 332.624 93.72L333.824 89.224H335.104L336.32 93.72C336.416 94.0827 336.506 94.4453 336.592 94.808C336.688 95.16 336.778 95.5173 336.864 95.88H336.928C337.013 95.5173 337.093 95.16 337.168 94.808C337.253 94.4453 337.333 94.0827 337.408 93.72L338.544 89.224H339.792L337.712 97H336.112L334.992 92.824C334.896 92.4507 334.805 92.0827 334.72 91.72C334.645 91.3573 334.56 90.9787 334.464 90.584H334.4C334.314 90.9787 334.229 91.3627 334.144 91.736C334.058 92.0987 333.962 92.4667 333.856 92.84L332.768 97H331.232ZM343.516 97.192C342.961 97.192 342.433 97.0907 341.932 96.888C341.431 96.6747 340.993 96.4187 340.62 96.12L341.276 95.24C341.617 95.5067 341.969 95.7307 342.332 95.912C342.695 96.0827 343.105 96.168 343.564 96.168C344.076 96.168 344.46 96.0507 344.716 95.816C344.972 95.5707 345.1 95.2827 345.1 94.952C345.1 94.6853 345.009 94.4613 344.828 94.28C344.657 94.0987 344.433 93.9493 344.156 93.832C343.889 93.704 343.612 93.5867 343.324 93.48C342.961 93.3413 342.604 93.1867 342.252 93.016C341.9 92.8347 341.612 92.6053 341.388 92.328C341.164 92.04 341.052 91.6773 341.052 91.24C341.052 90.6107 341.287 90.088 341.756 89.672C342.236 89.2453 342.897 89.032 343.74 89.032C344.22 89.032 344.668 89.1173 345.084 89.288C345.5 89.4587 345.857 89.6667 346.156 89.912L345.516 90.744C345.249 90.5413 344.972 90.376 344.684 90.248C344.396 90.12 344.081 90.056 343.74 90.056C343.249 90.056 342.887 90.168 342.652 90.392C342.428 90.616 342.316 90.8773 342.316 91.176C342.316 91.4213 342.396 91.624 342.556 91.784C342.716 91.9333 342.924 92.0667 343.18 92.184C343.436 92.2907 343.708 92.4027 343.996 92.52C344.369 92.6587 344.737 92.8187 345.1 93C345.463 93.1707 345.761 93.4053 345.996 93.704C346.241 93.992 346.364 94.3813 346.364 94.872C346.364 95.288 346.252 95.672 346.028 96.024C345.815 96.376 345.495 96.6587 345.068 96.872C344.652 97.0853 344.135 97.192 343.516 97.192Z" fill="#212121"/>
<path d="M415.932 97V86.504H419.212C419.927 86.504 420.562 86.6 421.116 86.792C421.671 86.9733 422.103 87.2827 422.412 87.72C422.732 88.1467 422.892 88.7227 422.892 89.448C422.892 90.2587 422.679 90.9147 422.252 91.416C421.826 91.9067 421.25 92.2427 420.524 92.424L423.196 97H421.692L419.164 92.568H417.26V97H415.932ZM417.26 91.48H419.02C419.842 91.48 420.471 91.3147 420.908 90.984C421.346 90.6427 421.564 90.1307 421.564 89.448C421.564 88.7547 421.346 88.2693 420.908 87.992C420.471 87.7147 419.842 87.576 419.02 87.576H417.26V91.48ZM427.909 97.192C427.216 97.192 426.587 97.032 426.021 96.712C425.456 96.3813 425.008 95.912 424.677 95.304C424.347 94.696 424.181 93.9707 424.181 93.128C424.181 92.2747 424.347 91.544 424.677 90.936C425.019 90.328 425.456 89.8587 425.989 89.528C426.523 89.1973 427.083 89.032 427.669 89.032C428.661 89.032 429.424 89.3627 429.957 90.024C430.501 90.6853 430.773 91.5707 430.773 92.68C430.773 92.8187 430.768 92.9573 430.757 93.096C430.757 93.224 430.747 93.336 430.725 93.432H425.477C425.531 94.2533 425.787 94.9093 426.245 95.4C426.715 95.8907 427.323 96.136 428.069 96.136C428.443 96.136 428.784 96.0827 429.093 95.976C429.413 95.8587 429.717 95.7093 430.005 95.528L430.469 96.392C430.139 96.6053 429.76 96.792 429.333 96.952C428.917 97.112 428.443 97.192 427.909 97.192ZM425.461 92.488H429.621C429.621 91.6987 429.451 91.1013 429.109 90.696C428.779 90.28 428.309 90.072 427.701 90.072C427.157 90.072 426.667 90.2853 426.229 90.712C425.803 91.128 425.547 91.72 425.461 92.488ZM434.268 97.192C433.617 97.192 433.073 97 432.636 96.616C432.209 96.2213 431.996 95.6773 431.996 94.984C431.996 94.1307 432.375 93.48 433.132 93.032C433.9 92.5733 435.111 92.2533 436.764 92.072C436.764 91.7413 436.716 91.4267 436.62 91.128C436.535 90.8293 436.375 90.5893 436.14 90.408C435.916 90.216 435.591 90.12 435.164 90.12C434.716 90.12 434.295 90.2053 433.9 90.376C433.505 90.5467 433.153 90.7387 432.844 90.952L432.332 90.04C432.695 89.8053 433.137 89.5813 433.66 89.368C434.193 89.144 434.769 89.032 435.388 89.032C436.337 89.032 437.025 89.3253 437.452 89.912C437.879 90.488 438.092 91.2613 438.092 92.232V97H437.004L436.892 96.072H436.844C436.481 96.3707 436.081 96.632 435.644 96.856C435.217 97.08 434.759 97.192 434.268 97.192ZM434.652 96.136C435.025 96.136 435.377 96.0453 435.708 95.864C436.039 95.6827 436.391 95.4267 436.764 95.096V92.936C435.473 93.096 434.567 93.336 434.044 93.656C433.532 93.976 433.276 94.3867 433.276 94.888C433.276 95.3253 433.409 95.6453 433.676 95.848C433.943 96.04 434.268 96.136 434.652 96.136ZM441.931 97.192C441.44 97.192 441.083 97.0427 440.859 96.744C440.645 96.4347 440.539 95.9973 440.539 95.432V85.608H441.851V95.528C441.851 95.7307 441.888 95.88 441.963 95.976C442.037 96.0613 442.123 96.104 442.219 96.104C442.261 96.104 442.299 96.104 442.331 96.104C442.373 96.0933 442.432 96.0827 442.507 96.072L442.683 97.064C442.597 97.1067 442.496 97.1387 442.379 97.16C442.261 97.1813 442.112 97.192 441.931 97.192ZM443.961 93.496V92.488H447.641V93.496H443.961ZM451.139 97V87.624H447.971V86.504H455.651V87.624H452.483V97H451.139ZM457.414 97V89.224H458.726V97H457.414ZM458.086 87.624C457.83 87.624 457.616 87.5493 457.446 87.4C457.286 87.24 457.206 87.0267 457.206 86.76C457.206 86.504 457.286 86.296 457.446 86.136C457.616 85.976 457.83 85.896 458.086 85.896C458.342 85.896 458.55 85.976 458.71 86.136C458.88 86.296 458.966 86.504 458.966 86.76C458.966 87.0267 458.88 87.24 458.71 87.4C458.55 87.5493 458.342 87.624 458.086 87.624ZM461.351 97V89.224H462.439L462.551 90.344H462.599C462.94 89.9707 463.314 89.6613 463.719 89.416C464.124 89.16 464.556 89.032 465.015 89.032C465.612 89.032 466.076 89.1653 466.407 89.432C466.748 89.688 466.999 90.0507 467.159 90.52C467.564 90.0827 467.975 89.7253 468.391 89.448C468.807 89.1707 469.25 89.032 469.719 89.032C470.519 89.032 471.111 89.2933 471.495 89.816C471.89 90.328 472.087 91.08 472.087 92.072V97H470.775V92.248C470.775 91.5227 470.658 90.9947 470.423 90.664C470.188 90.3333 469.826 90.168 469.335 90.168C468.759 90.168 468.108 90.568 467.383 91.368V97H466.071V92.248C466.071 91.5227 465.954 90.9947 465.719 90.664C465.484 90.3333 465.116 90.168 464.615 90.168C464.039 90.168 463.388 90.568 462.663 91.368V97H461.351ZM477.769 97.192C477.075 97.192 476.446 97.032 475.881 96.712C475.315 96.3813 474.867 95.912 474.537 95.304C474.206 94.696 474.041 93.9707 474.041 93.128C474.041 92.2747 474.206 91.544 474.537 90.936C474.878 90.328 475.315 89.8587 475.849 89.528C476.382 89.1973 476.942 89.032 477.529 89.032C478.521 89.032 479.283 89.3627 479.817 90.024C480.361 90.6853 480.633 91.5707 480.633 92.68C480.633 92.8187 480.627 92.9573 480.617 93.096C480.617 93.224 480.606 93.336 480.585 93.432H475.337C475.39 94.2533 475.646 94.9093 476.105 95.4C476.574 95.8907 477.182 96.136 477.929 96.136C478.302 96.136 478.643 96.0827 478.953 95.976C479.273 95.8587 479.577 95.7093 479.865 95.528L480.329 96.392C479.998 96.6053 479.619 96.792 479.193 96.952C478.777 97.112 478.302 97.192 477.769 97.192ZM475.321 92.488H479.481C479.481 91.6987 479.31 91.1013 478.969 90.696C478.638 90.28 478.169 90.072 477.561 90.072C477.017 90.072 476.526 90.2853 476.089 90.712C475.662 91.128 475.406 91.72 475.321 92.488ZM488.797 97.192C488.061 97.192 487.379 97.0533 486.749 96.776C486.12 96.488 485.576 96.1093 485.117 95.64L485.917 94.712C486.291 95.1067 486.728 95.4267 487.229 95.672C487.741 95.9067 488.269 96.024 488.813 96.024C489.507 96.024 490.045 95.8693 490.429 95.56C490.813 95.24 491.005 94.824 491.005 94.312C491.005 93.9493 490.925 93.6613 490.765 93.448C490.616 93.2347 490.408 93.0533 490.141 92.904C489.885 92.7547 489.592 92.6053 489.261 92.456L487.757 91.8C487.427 91.6613 487.096 91.48 486.765 91.256C486.445 91.032 486.173 90.744 485.949 90.392C485.736 90.04 485.629 89.608 485.629 89.096C485.629 88.5627 485.768 88.088 486.045 87.672C486.333 87.2453 486.728 86.9147 487.229 86.68C487.731 86.4347 488.296 86.312 488.925 86.312C489.555 86.312 490.136 86.4347 490.669 86.68C491.203 86.9147 491.656 87.224 492.029 87.608L491.309 88.472C490.989 88.1627 490.632 87.9227 490.237 87.752C489.853 87.5707 489.416 87.48 488.925 87.48C488.339 87.48 487.864 87.6187 487.501 87.896C487.149 88.1733 486.973 88.5467 486.973 89.016C486.973 89.3467 487.059 89.624 487.229 89.848C487.411 90.0613 487.635 90.2373 487.901 90.376C488.168 90.5147 488.44 90.6427 488.717 90.76L490.205 91.4C490.611 91.5707 490.973 91.7787 491.293 92.024C491.624 92.2587 491.885 92.552 492.077 92.904C492.269 93.2453 492.365 93.6773 492.365 94.2C492.365 94.7547 492.221 95.2613 491.933 95.72C491.645 96.168 491.235 96.5253 490.701 96.792C490.168 97.0587 489.533 97.192 488.797 97.192ZM494.432 100.344C494.262 100.344 494.096 100.328 493.936 100.296C493.787 100.264 493.648 100.227 493.52 100.184L493.776 99.144C493.862 99.1653 493.958 99.1867 494.064 99.208C494.171 99.24 494.272 99.256 494.368 99.256C494.806 99.256 495.168 99.096 495.456 98.776C495.744 98.4667 495.968 98.072 496.128 97.592L496.304 97.016L493.184 89.224H494.544L496.128 93.528C496.246 93.8587 496.368 94.216 496.496 94.6C496.635 94.984 496.763 95.3573 496.88 95.72H496.944C497.062 95.368 497.174 95 497.28 94.616C497.387 94.232 497.494 93.8693 497.6 93.528L498.992 89.224H500.272L497.344 97.64C497.163 98.152 496.944 98.6107 496.688 99.016C496.443 99.4213 496.134 99.7413 495.76 99.976C495.398 100.221 494.955 100.344 494.432 100.344ZM501.773 97V89.224H502.861L502.973 90.344H503.021C503.394 89.9707 503.789 89.6613 504.205 89.416C504.621 89.16 505.096 89.032 505.629 89.032C506.45 89.032 507.048 89.2933 507.421 89.816C507.805 90.328 507.997 91.08 507.997 92.072V97H506.685V92.248C506.685 91.5227 506.568 90.9947 506.333 90.664C506.098 90.3333 505.725 90.168 505.213 90.168C504.818 90.168 504.461 90.2693 504.141 90.472C503.832 90.6747 503.48 90.9733 503.085 91.368V97H501.773ZM513.595 97.192C512.912 97.192 512.294 97.032 511.739 96.712C511.184 96.392 510.747 95.928 510.427 95.32C510.107 94.712 509.947 93.9813 509.947 93.128C509.947 92.2533 510.118 91.512 510.459 90.904C510.811 90.296 511.27 89.832 511.835 89.512C512.411 89.192 513.03 89.032 513.691 89.032C514.203 89.032 514.64 89.1227 515.003 89.304C515.376 89.4853 515.696 89.6987 515.963 89.944L515.291 90.808C515.067 90.6053 514.827 90.44 514.571 90.312C514.326 90.184 514.048 90.12 513.739 90.12C513.27 90.12 512.848 90.248 512.475 90.504C512.112 90.7493 511.824 91.1013 511.611 91.56C511.408 92.008 511.307 92.5307 511.307 93.128C511.307 94.0133 511.526 94.7333 511.963 95.288C512.411 95.832 512.992 96.104 513.707 96.104C514.07 96.104 514.406 96.0293 514.715 95.88C515.024 95.72 515.296 95.5333 515.531 95.32L516.107 96.2C515.755 96.5093 515.366 96.7547 514.939 96.936C514.512 97.1067 514.064 97.192 513.595 97.192Z" fill="#212121"/>
<path d="M606.815 97V86.504H608.191L611.983 93.096L613.119 95.272H613.183C613.151 94.7387 613.114 94.1893 613.071 93.624C613.039 93.048 613.023 92.4827 613.023 91.928V86.504H614.287V97H612.911L609.103 90.392L607.967 88.232H607.903C607.946 88.7547 607.983 89.2933 608.015 89.848C608.058 90.4027 608.079 90.9573 608.079 91.512V97H606.815ZM620.07 97.192C619.441 97.192 618.849 97.032 618.294 96.712C617.75 96.392 617.308 95.928 616.966 95.32C616.636 94.712 616.47 93.9813 616.47 93.128C616.47 92.2533 616.636 91.512 616.966 90.904C617.308 90.296 617.75 89.832 618.294 89.512C618.849 89.192 619.441 89.032 620.07 89.032C620.71 89.032 621.302 89.192 621.846 89.512C622.39 89.832 622.828 90.296 623.158 90.904C623.5 91.512 623.67 92.2533 623.67 93.128C623.67 93.9813 623.5 94.712 623.158 95.32C622.828 95.928 622.39 96.392 621.846 96.712C621.302 97.032 620.71 97.192 620.07 97.192ZM620.07 96.104C620.742 96.104 621.281 95.832 621.686 95.288C622.102 94.7333 622.31 94.0133 622.31 93.128C622.31 92.232 622.102 91.5067 621.686 90.952C621.281 90.3973 620.742 90.12 620.07 90.12C619.409 90.12 618.87 90.3973 618.454 90.952C618.038 91.5067 617.83 92.232 617.83 93.128C617.83 94.0133 618.038 94.7333 618.454 95.288C618.87 95.832 619.409 96.104 620.07 96.104ZM629.049 97V86.504H630.649L632.665 92.104C632.793 92.4667 632.916 92.8347 633.033 93.208C633.161 93.5707 633.289 93.9333 633.417 94.296H633.481C633.609 93.9333 633.727 93.5707 633.833 93.208C633.951 92.8347 634.073 92.4667 634.201 92.104L636.185 86.504H637.801V97H636.553V91.224C636.553 90.7547 636.575 90.2373 636.617 89.672C636.66 89.096 636.697 88.5787 636.729 88.12H636.665L635.833 90.504L633.849 95.944H632.969L630.985 90.504L630.153 88.12H630.089C630.121 88.5787 630.153 89.096 630.185 89.672C630.228 90.2373 630.249 90.7547 630.249 91.224V97H629.049ZM640.546 97V89.224H641.858V97H640.546ZM641.218 87.624C640.962 87.624 640.749 87.5493 640.578 87.4C640.418 87.24 640.338 87.0267 640.338 86.76C640.338 86.504 640.418 86.296 640.578 86.136C640.749 85.976 640.962 85.896 641.218 85.896C641.474 85.896 641.682 85.976 641.842 86.136C642.013 86.296 642.098 86.504 642.098 86.76C642.098 87.0267 642.013 87.24 641.842 87.4C641.682 87.5493 641.474 87.624 641.218 87.624ZM647.14 97.192C646.169 97.192 645.391 96.84 644.804 96.136C644.217 95.4213 643.924 94.4187 643.924 93.128C643.924 92.2853 644.079 91.56 644.388 90.952C644.708 90.3333 645.124 89.8587 645.636 89.528C646.159 89.1973 646.713 89.032 647.3 89.032C647.748 89.032 648.137 89.112 648.468 89.272C648.799 89.432 649.135 89.6507 649.476 89.928L649.412 88.6V85.608H650.74V97H649.652L649.54 96.088H649.492C649.193 96.3867 648.841 96.648 648.436 96.872C648.031 97.0853 647.599 97.192 647.14 97.192ZM647.428 96.088C648.111 96.088 648.772 95.7307 649.412 95.016V90.952C649.081 90.6533 648.761 90.4453 648.452 90.328C648.153 90.2 647.844 90.136 647.524 90.136C647.108 90.136 646.729 90.264 646.388 90.52C646.057 90.7653 645.791 91.112 645.588 91.56C645.385 91.9973 645.284 92.5147 645.284 93.112C645.284 94.04 645.471 94.7707 645.844 95.304C646.217 95.8267 646.745 96.088 647.428 96.088ZM656.015 97.192C655.044 97.192 654.266 96.84 653.679 96.136C653.092 95.4213 652.799 94.4187 652.799 93.128C652.799 92.2853 652.954 91.56 653.263 90.952C653.583 90.3333 653.999 89.8587 654.511 89.528C655.034 89.1973 655.588 89.032 656.175 89.032C656.623 89.032 657.012 89.112 657.343 89.272C657.674 89.432 658.01 89.6507 658.351 89.928L658.287 88.6V85.608H659.615V97H658.527L658.415 96.088H658.367C658.068 96.3867 657.716 96.648 657.311 96.872C656.906 97.0853 656.474 97.192 656.015 97.192ZM656.303 96.088C656.986 96.088 657.647 95.7307 658.287 95.016V90.952C657.956 90.6533 657.636 90.4453 657.327 90.328C657.028 90.2 656.719 90.136 656.399 90.136C655.983 90.136 655.604 90.264 655.263 90.52C654.932 90.7653 654.666 91.112 654.463 91.56C654.26 91.9973 654.159 92.5147 654.159 93.112C654.159 94.04 654.346 94.7707 654.719 95.304C655.092 95.8267 655.62 96.088 656.303 96.088ZM663.626 97.192C663.135 97.192 662.778 97.0427 662.554 96.744C662.341 96.4347 662.234 95.9973 662.234 95.432V85.608H663.546V95.528C663.546 95.7307 663.583 95.88 663.658 95.976C663.733 96.0613 663.818 96.104 663.914 96.104C663.957 96.104 663.994 96.104 664.026 96.104C664.069 96.0933 664.127 96.0827 664.202 96.072L664.378 97.064C664.293 97.1067 664.191 97.1387 664.074 97.16C663.957 97.1813 663.807 97.192 663.626 97.192ZM669.464 97.192C668.771 97.192 668.141 97.032 667.576 96.712C667.011 96.3813 666.563 95.912 666.232 95.304C665.901 94.696 665.736 93.9707 665.736 93.128C665.736 92.2747 665.901 91.544 666.232 90.936C666.573 90.328 667.011 89.8587 667.544 89.528C668.077 89.1973 668.637 89.032 669.224 89.032C670.216 89.032 670.979 89.3627 671.512 90.024C672.056 90.6853 672.328 91.5707 672.328 92.68C672.328 92.8187 672.323 92.9573 672.312 93.096C672.312 93.224 672.301 93.336 672.28 93.432H667.032C667.085 94.2533 667.341 94.9093 667.8 95.4C668.269 95.8907 668.877 96.136 669.624 96.136C669.997 96.136 670.339 96.0827 670.648 95.976C670.968 95.8587 671.272 95.7093 671.56 95.528L672.024 96.392C671.693 96.6053 671.315 96.792 670.888 96.952C670.472 97.112 669.997 97.192 669.464 97.192ZM667.016 92.488H671.176C671.176 91.6987 671.005 91.1013 670.664 90.696C670.333 90.28 669.864 90.072 669.256 90.072C668.712 90.072 668.221 90.2853 667.784 90.712C667.357 91.128 667.101 91.72 667.016 92.488ZM673.75 93.496V92.488H677.43V93.496H673.75ZM680.498 97L678.274 86.504H679.65L680.754 92.216C680.85 92.7813 680.952 93.3467 681.058 93.912C681.165 94.4773 681.266 95.0427 681.362 95.608H681.426C681.544 95.0427 681.666 94.4773 681.794 93.912C681.922 93.336 682.045 92.7707 682.162 92.216L683.618 86.504H684.834L686.29 92.216C686.418 92.7707 686.546 93.336 686.674 93.912C686.802 94.4773 686.93 95.0427 687.058 95.608H687.122C687.218 95.0427 687.314 94.4773 687.41 93.912C687.506 93.336 687.608 92.7707 687.714 92.216L688.818 86.504H690.098L687.922 97H686.322L684.738 90.68C684.642 90.2747 684.552 89.88 684.466 89.496C684.392 89.1013 684.312 88.7013 684.226 88.296H684.162C684.088 88.7013 684.002 89.1013 683.906 89.496C683.81 89.88 683.72 90.2747 683.634 90.68L682.082 97H680.498ZM693.338 97.192C692.688 97.192 692.144 97 691.706 96.616C691.28 96.2213 691.066 95.6773 691.066 94.984C691.066 94.1307 691.445 93.48 692.202 93.032C692.97 92.5733 694.181 92.2533 695.834 92.072C695.834 91.7413 695.786 91.4267 695.69 91.128C695.605 90.8293 695.445 90.5893 695.21 90.408C694.986 90.216 694.661 90.12 694.234 90.12C693.786 90.12 693.365 90.2053 692.97 90.376C692.576 90.5467 692.224 90.7387 691.914 90.952L691.402 90.04C691.765 89.8053 692.208 89.5813 692.73 89.368C693.264 89.144 693.84 89.032 694.458 89.032C695.408 89.032 696.096 89.3253 696.522 89.912C696.949 90.488 697.162 91.2613 697.162 92.232V97H696.074L695.962 96.072H695.914C695.552 96.3707 695.152 96.632 694.714 96.856C694.288 97.08 693.829 97.192 693.338 97.192ZM693.722 96.136C694.096 96.136 694.448 96.0453 694.778 95.864C695.109 95.6827 695.461 95.4267 695.834 95.096V92.936C694.544 93.096 693.637 93.336 693.114 93.656C692.602 93.976 692.346 94.3867 692.346 94.888C692.346 95.3253 692.48 95.6453 692.746 95.848C693.013 96.04 693.338 96.136 693.722 96.136ZM699.609 97V89.224H700.697L700.809 90.632H700.857C701.124 90.1413 701.449 89.752 701.833 89.464C702.217 89.176 702.628 89.032 703.065 89.032C703.374 89.032 703.652 89.0853 703.897 89.192L703.641 90.344C703.513 90.3013 703.396 90.2693 703.289 90.248C703.182 90.2267 703.049 90.216 702.889 90.216C702.558 90.216 702.212 90.3493 701.849 90.616C701.497 90.8827 701.188 91.3467 700.921 92.008V97H699.609ZM708.152 97.192C707.458 97.192 706.829 97.032 706.264 96.712C705.698 96.3813 705.25 95.912 704.92 95.304C704.589 94.696 704.424 93.9707 704.424 93.128C704.424 92.2747 704.589 91.544 704.92 90.936C705.261 90.328 705.698 89.8587 706.232 89.528C706.765 89.1973 707.325 89.032 707.911 89.032C708.904 89.032 709.666 89.3627 710.2 90.024C710.744 90.6853 711.016 91.5707 711.016 92.68C711.016 92.8187 711.01 92.9573 711 93.096C711 93.224 710.989 93.336 710.968 93.432H705.72C705.773 94.2533 706.029 94.9093 706.488 95.4C706.957 95.8907 707.565 96.136 708.312 96.136C708.685 96.136 709.026 96.0827 709.336 95.976C709.656 95.8587 709.96 95.7093 710.248 95.528L710.712 96.392C710.381 96.6053 710.002 96.792 709.576 96.952C709.16 97.112 708.685 97.192 708.152 97.192ZM705.704 92.488H709.864C709.864 91.6987 709.693 91.1013 709.352 90.696C709.021 90.28 708.552 90.072 707.944 90.072C707.4 90.072 706.909 90.2853 706.472 90.712C706.045 91.128 705.789 91.72 705.704 92.488Z" fill="#212121"/>
<rect x="44" width="72" height="72" fill="#D9D9D9"/>
<rect x="237" width="72" height="72" fill="#D9D9D9"/>
<rect x="430" width="72" height="72" fill="#D9D9D9"/>
<rect x="623" width="72" height="72" fill="#D9D9D9"/>
</svg>
