<svg width="128" height="128" viewBox="0 0 128 128" fill="none" xmlns="http://www.w3.org/2000/svg">
<mask id="mask0_1_2292" style="mask-type:luminance" maskUnits="userSpaceOnUse" x="0" y="0" width="128" height="128">
<path d="M128 0H0V128H128V0Z" fill="white"/>
</mask>
<g mask="url(#mask0_1_2292)">
<path fill-rule="evenodd" clip-rule="evenodd" d="M72.1646 7.9873C72.1646 8.35302 72.1389 8.71619 72.0901 9.06921C72.0825 9.32317 72.0593 9.5746 72.026 9.82603C72.3391 11.8146 73.7968 13.4273 78.8167 17.9759C85.995 24.4216 87.3372 24.9422 90.9251 22.0571C92.3058 19.619 94.9389 17.9708 97.9622 17.9708C102.415 17.9708 106.026 21.5467 106.026 25.9581C106.026 27.7841 105.407 29.4654 104.368 30.8089C104.163 32.7721 104.019 35.7308 104.019 38.4686C104.019 45.9556 104.581 47.9238 106.832 47.9238C107.45 47.9238 110.037 49.7829 112.627 52.0229C113.995 53.2013 114.865 54.0419 115.486 54.6413L115.491 54.6464C116.096 55.233 116.466 55.586 116.825 55.8019C117.162 55.6952 117.508 55.6114 117.86 55.5479C117.996 55.5251 118.129 55.5048 118.265 55.487C118.804 55.3752 119.364 55.3143 119.936 55.3143C124.389 55.3143 128 58.8902 128 63.3016C128 67.713 124.389 71.2889 119.936 71.2889C119.307 71.2889 118.694 71.2178 118.106 71.0832C117.926 71.0578 117.747 71.0248 117.57 70.9867C117.541 70.9816 117.513 70.974 117.485 70.9689C116.884 71.1111 116.528 71.4743 115.622 72.4013L115.619 72.4038L115.617 72.4064L115.614 72.4089C114.988 73.0514 114.097 73.9606 112.683 75.2508C110.096 77.6559 107.45 79.6216 106.832 79.6216C104.581 79.6216 104.019 81.5898 104.019 89.2394C104.019 92.64 104.224 96.4013 104.527 98.3822C105.097 99.4794 105.42 100.721 105.42 102.039C105.42 106.451 101.809 110.027 97.3565 110.027C94.4565 110.027 91.9131 108.51 90.4939 106.232C89.4289 105.379 88.3741 104.757 88.0404 104.757C86.0155 104.757 83.7648 106.232 79.6021 110.113C78.2495 111.368 76.8791 112.673 75.7961 113.704H75.7935L75.7704 113.727L75.7678 113.73L75.7627 113.735L75.7601 113.737C74.8773 114.578 74.1895 115.233 73.8635 115.525C73.0192 116.29 72.4572 117.603 72.1748 119.406C72.1671 119.469 72.1569 119.53 72.1466 119.591C72.1543 119.731 72.1569 119.87 72.1569 120.013C72.1569 124.424 68.5459 128 64.0932 128C59.6405 128 56.0295 124.424 56.0295 120.013C56.0295 119.751 56.0423 119.495 56.068 119.241C55.7754 117.592 55.0183 115.959 54.2279 115.363C53.7223 115.035 51.0763 112.63 48.32 110.006C45.5072 107.439 42.9203 105.308 42.525 105.308C42.1863 105.308 41.3445 105.143 40.6695 104.98C39.8252 104.762 38.7575 105.308 36.8994 106.839C36.4093 107.248 35.9422 107.609 35.4854 107.924C34.0482 109.232 32.1336 110.032 30.0266 110.032C25.5739 110.032 21.9629 106.456 21.9629 102.044C21.9629 100.236 22.5686 98.5676 23.5926 97.2292C23.7209 95.2127 23.8441 92.7416 23.9031 90.3898C24.2419 81.374 24.0725 80.9346 20.4718 79.3498C19.571 78.913 17.1534 77.1098 15.2389 75.3067C12.3542 72.6146 11.0916 71.5454 9.67235 71.1314C9.1488 71.2381 8.60728 71.2914 8.05294 71.2914C7.12389 71.2914 6.23078 71.1365 5.39926 70.8495C5.24271 70.7962 5.08873 70.7403 4.93474 70.6768C3.47188 70.08 2.21947 69.0717 1.33919 67.7765C0.458912 66.4813 -0.0107422 64.96 -0.0107422 63.4032C-0.0107422 63.3879 -0.0107422 63.3702 -0.0107422 63.3549C-0.0107422 63.3371 -0.0107422 63.3219 -0.0107422 63.3041C-0.0107422 58.8927 3.60021 55.3168 8.05294 55.3168C8.95375 55.3168 9.81863 55.4641 10.6271 55.7333C11.6331 55.3244 12.7341 54.3721 15.126 52.2464C17.4332 50.1689 20.0766 48.2565 20.9209 48.094C23.8467 47.4921 24.2393 46.1257 23.9031 37.7118C23.803 35.0476 23.649 32.1905 23.5079 30.0902C22.9125 28.9752 22.5763 27.7079 22.5763 26.3594C22.5763 21.9479 26.1872 18.3721 30.64 18.3721C33.617 18.3721 36.2194 19.9721 37.6155 22.3517C40.8825 25.0438 42.4044 24.2057 49.9599 17.3232C55.2185 12.5359 55.6779 11.9949 56.1116 9.54921C56.086 9.29016 56.0757 9.02857 56.0757 8.76952C56.05 8.51302 56.0372 8.25397 56.0372 7.99238C56.0372 3.57587 59.6482 0 64.1009 0C68.5536 0 72.1646 3.57587 72.1646 7.9873ZM111.888 62.8267C111.877 62.9841 111.875 63.1416 111.875 63.3016C111.875 63.5048 111.882 63.7079 111.898 63.9086C111.885 66.2552 111.649 66.5778 108.297 69.6762C104.809 72.9549 104.584 73.0641 101.714 73.0641C96.8201 73.0641 96.7072 73.2292 96.7072 84.3225V93.8311L95.7191 94.2197C94.2383 94.5219 92.9063 95.2279 91.8464 96.2133C91.5949 96.3937 91.3716 96.5664 91.1945 96.7263C90.014 97.8184 89.7882 97.8184 88.3818 97.054L88.3048 97.0108C87.9224 96.8051 87.5913 96.6248 87.3064 96.3937C85.4586 94.8952 85.4586 91.1949 85.4586 63.7181C85.4586 34.3162 85.4586 33.826 86.6392 32.4038C87.9326 30.7632 90.5196 30.4914 91.7027 31.8578C92.0954 32.2946 93.3914 33.1683 94.572 33.7702L96.7098 34.8089V43.6063C96.7098 48.579 96.9356 52.8432 97.2718 53.4425C97.7774 54.3162 98.5088 54.4813 101.604 54.4813H105.318L108.633 57.6508C111.39 60.3784 111.826 60.8914 111.888 62.8267ZM33.3655 33.8768L31.4484 34.8064V43.6038C31.4484 48.5765 31.2225 52.8406 30.8863 53.44C30.3808 54.3137 29.6493 54.4787 26.6107 54.4787H22.9561L19.5813 57.5949C16.3194 60.5994 16.2629 60.7111 16.2629 63.6622C16.2629 66.6667 16.2629 66.7225 19.8071 69.8921C23.182 72.9524 23.4078 73.0616 26.4464 73.0616C31.3406 73.0616 31.3971 73.2267 31.5664 84.5384C31.7358 93.6102 31.7923 94.1029 32.8599 94.2654C33.4784 94.3746 34.9413 95.1949 36.0654 96.0686C38.542 97.981 38.7652 97.981 40.6798 96.5054L42.1426 95.4133V64.3733C42.1426 33.9327 42.1426 33.3333 41.0185 32.1854C39.7841 30.8851 37.8901 30.6387 36.7583 31.5657C35.8549 32.6019 34.6898 33.407 33.3655 33.8768ZM78.1443 27.1568C77.8056 26.3365 75.388 23.8222 72.7446 21.5289L67.9608 17.3206H64.0239H60.087L56.317 20.6552C54.2356 22.5143 51.8719 24.6984 51.0276 25.5746L49.4518 27.1594V36.1219C49.4518 44.32 49.5647 45.1378 50.6323 46.5041C51.6461 47.7613 52.2081 47.9238 55.0774 47.9238C57.9466 47.9238 58.5087 47.7587 59.5224 46.5041C60.59 45.1911 60.703 44.3175 60.703 37.2673C60.703 30.4356 60.8159 29.3968 61.7167 28.6324C63.0666 27.4311 65.3738 27.4844 66.4979 28.6883C67.9043 30.1638 67.9043 52.2971 66.5544 53.6076C65.8794 54.3187 64.3601 54.4813 59.0733 54.4813C53.1654 54.4813 52.2671 54.5905 50.9172 55.6292L49.4544 56.7213V78.9638C49.4544 99.2381 49.5673 101.316 50.4681 102.354C50.9737 102.956 53.3938 105.25 55.7575 107.383L60.0896 111.317H64.1394H68.1892L73.3092 106.453L78.3727 101.534L78.2598 91.807C78.034 80.5486 77.9236 80.221 73.2527 79.7841C71.1149 79.5657 70.2706 79.7283 69.1465 80.6045C67.7965 81.6965 67.7401 81.9149 67.5707 89.8413C67.4013 99.5683 67.3448 100.005 65.4893 100.825C63.97 101.481 62.058 100.99 61.1572 99.6241C60.9314 99.2965 60.7081 93.6127 60.7081 86.946C60.7081 75.9619 60.821 74.814 61.7218 73.9937C62.5662 73.2292 64.029 73.0641 69.2594 73.0641C74.8285 73.0641 75.9552 72.8991 77.0793 72.0254L78.4292 70.9867L78.5986 49.7829C78.7064 35.4641 78.537 28.0864 78.1443 27.1568Z" fill="url(#paint0_linear_1_2292)"/>
</g>
<defs>
<linearGradient id="paint0_linear_1_2292" x1="62.3296" y1="127.958" x2="65.5658" y2="0.0344069" gradientUnits="userSpaceOnUse">
<stop stop-color="#213144"/>
<stop offset="1" stop-color="#445566"/>
</linearGradient>
</defs>
</svg>
